<?xml version="1.0" ?>
<svg style="enable-background:new 0 0 48 48;" version="1.1" viewBox="0 0 48 48" xml:space="preserve" 
  xmlns="http://www.w3.org/2000/svg" 
  xmlns:xlink="http://www.w3.org/1999/xlink">
  <style type="text/css">
	.st0{display:none;}
	.st1{fill:none;stroke:#667580;stroke-width:0.7;stroke-linecap:round;stroke-linejoin:round;stroke-miterlimit:10;}
	.st2{fill:#667580;}
  </style>
  <g class="st0" id="Padding__x26__Artboard"/>
  <g id="Icons">
    <g>
      <g>
        <path class="st1" d="M12.97378,28.83298v-0.01231c-0.23395-0.54179-0.41865-1.1082-0.56641-1.68693     c-0.27089-0.99738-0.40634-2.04402-0.40634-3.12759c0-0.1847,0-0.3694,0.01231-0.5541"/>
        <path class="st1" d="M15.73197,32.85945c0.13545,0.13544,0.28321,0.27089,0.43097,0.40634     c1.63768,1.46529,3.66938,2.49961,5.92272,2.93058c0.76343,0.14776,1.53917,0.22164,2.33953,0.22164     c0.89887,0,1.78544-0.09851,2.63506-0.28321c2.17946-0.46791,4.1496-1.51454,5.73802-2.97983     c1.71156-1.55148,2.99214-3.5955,3.60781-5.91041c0.28321-1.03432,0.43097-2.1179,0.43097-3.23841     c0-0.2709-0.01231-0.52947-0.02463-0.80037"/>
        <path class="st1" d="M13.67564,17.7756c2.15484-3.70632,6.15667-6.19361,10.74955-6.19361s8.60703,2.51192,10.76187,6.23055"/>
      </g>
      <polyline class="st1" points="16.16294,33.26579 15.73197,33.38892 12.12416,34.46019 10.22791,35.0266 12.12416,30.74155     12.97378,28.83298 12.97378,28.82067   "/>
      <path class="st1" d="M27.0603,24.09363v11.98413c-0.84962,0.22187-1.73623,0.34026-2.63507,0.34026    c-0.8004,0-1.57615-0.08877-2.33957-0.2663V24.09363H27.0603z"/>
      <circle class="st1" cx="24.57368" cy="17.61195" r="4.3599"/>
      <path class="st1" d="M21.7437,17.61195c0-1.56295,1.26702-2.82998,2.82998-2.82998"/>
      <path class="st1" d="M36.40609,27.13378v0.11078c-0.61567,2.31492-1.89623,4.3589-3.6078,5.91039v-6.02117H36.40609z"/>
      <circle class="st1" cx="34.60435" cy="20.92589" r="3.16774"/>
      <path class="st1" d="M36.40609,27.13378v0.11078c-0.61567,2.31492-1.89623,4.3589-3.6078,5.91039v-6.02117H36.40609z"/>
      <circle class="st1" cx="34.60435" cy="20.92589" r="3.16774"/>
      <polyline class="st1" points="12.12416,34.46019 15.73197,33.38892 15.73197,32.85945 15.73197,27.13374 12.40737,27.13374   "/>
      <circle class="st1" cx="13.92663" cy="20.92589" r="3.16774"/>
      <polyline class="st1" points="12.12416,34.46019 15.73197,33.38892 15.73197,32.85945 15.73197,27.13374 12.40737,27.13374   "/>
      <circle class="st1" cx="13.92663" cy="20.92589" r="3.16774"/>
      <path class="st1" d="M21.96365,18.97333c0,0,0.16667,0.60417,0.70833,0.8125"/>
    </g>
  </g>
</svg>